<?xml version="1.0" encoding="iso-8859-1"?>
<!-- Generator: Adobe Illustrator 19.0.0, SVG Export Plug-In . SVG Version: 6.00 Build 0)  -->
<svg version="1.1" id="Layer_1" xmlns="http://www.w3.org/2000/svg" xmlns:xlink="http://www.w3.org/1999/xlink" x="0px" y="0px"
	 viewBox="0 0 330 330" style="enable-background:new 0 0 330 330;" xml:space="preserve">
<path id="XMLID_847_" d="M164.991,0C74.015,0,0,74.02,0,165.002C0.002,255.982,74.018,330,164.994,330c0.001,0,0.001,0,0.001,0
	c44.075-0.002,85.512-17.166,116.678-48.33c31.167-31.165,48.33-72.599,48.327-116.668C330,74.021,255.979,0.002,164.991,0z
	 M267.563,252.79c-4.767-5.528-9.037-11.379-12.796-17.503c7-3.719,9.947-12.298,6.558-19.565
	c-3.394-7.277-11.88-10.534-19.234-7.539c-3.05-9.081-5.128-18.528-6.182-28.225c7.903-0.426,14.185-6.95,14.185-14.959
	s-6.282-14.533-14.185-14.959c1.054-9.697,3.131-19.144,6.182-28.225c1.84,0.749,3.746,1.128,5.63,1.128
	c5.648,0,11.059-3.207,13.604-8.663c3.39-7.268,0.442-15.848-6.559-19.567c3.746-6.104,8.001-11.936,12.748-17.447
	C287.754,100.879,300,131.536,300,165.003C300.002,197.555,288.553,228.348,267.563,252.79z M62.483,77.264
	c4.747,5.512,9.001,11.344,12.748,17.448c-7.001,3.718-9.95,12.299-6.56,19.566c2.545,5.458,7.955,8.664,13.604,8.664
	c1.884,0,3.79-0.379,5.63-1.128c3.05,9.081,5.128,18.528,6.182,28.225c-7.903,0.426-14.185,6.95-14.185,14.959
	s6.282,14.533,14.185,14.959c-1.054,9.697-3.131,19.144-6.182,28.225c-7.355-2.992-15.84,0.263-19.234,7.54
	c-3.389,7.267-0.442,15.846,6.558,19.565c-3.746,6.104-8.001,11.936-12.748,17.447C42.245,229.12,30,198.466,30,165.002
	C30,131.535,42.245,100.878,62.483,77.264z M164.994,300c-30.191,0-58.098-9.964-80.609-26.776
	c6.814-7.845,12.837-16.3,18.026-25.218l0.718,0.335c2.051,0.956,4.207,1.409,6.33,1.409c5.649,0,11.06-3.206,13.604-8.664
	c3.501-7.508,0.253-16.433-7.255-19.934l-0.713-0.333c4.729-13.11,7.811-26.829,9.103-40.822h0.705c8.284,0,15-6.716,15-15
	s-6.716-15-15-15h-0.706c-1.292-13.991-4.374-27.709-9.102-40.818l0.713-0.333c7.508-3.501,10.756-12.426,7.254-19.934
	c-3.502-7.508-12.427-10.757-19.934-7.254l-0.716,0.334c-5.189-8.919-11.212-17.373-18.025-25.218
	C106.898,39.963,134.805,30,164.996,30c30.192,0,58.101,9.965,80.612,26.775c-6.813,7.844-12.835,16.298-18.024,25.216l-0.714-0.333
	c-7.508-3.5-16.433-0.253-19.935,7.254c-3.501,7.508-0.254,16.433,7.254,19.935l0.712,0.333c-4.728,13.109-7.81,26.827-9.102,40.818
	h-0.705c-8.284,0-15,6.716-15,15s6.716,15,15,15h0.705c1.291,13.993,4.374,27.712,9.103,40.823l-0.712,0.332
	c-7.508,3.501-10.756,12.426-7.254,19.934c2.545,5.458,7.955,8.664,13.604,8.664c2.122,0,4.279-0.453,6.33-1.409l0.716-0.333
	c5.201,8.939,11.241,17.412,18.074,25.272C222.482,290.618,194.459,299.999,164.994,300z"/>
<g>
</g>
<g>
</g>
<g>
</g>
<g>
</g>
<g>
</g>
<g>
</g>
<g>
</g>
<g>
</g>
<g>
</g>
<g>
</g>
<g>
</g>
<g>
</g>
<g>
</g>
<g>
</g>
<g>
</g>
</svg>
