<?xml version="1.0" encoding="UTF-8" standalone="no"?>
<svg
   xmlns:dc="http://purl.org/dc/elements/1.1/"
   xmlns:cc="http://creativecommons.org/ns#"
   xmlns:rdf="http://www.w3.org/1999/02/22-rdf-syntax-ns#"
   xmlns:svg="http://www.w3.org/2000/svg"
   xmlns="http://www.w3.org/2000/svg"
   id="svg8"
   version="1.1"
   viewBox="0 0 210 297"
   height="297mm"
   width="210mm">
  <defs
     id="defs2" />
  <metadata
     id="metadata5">
    <rdf:RDF>
      <cc:Work
         rdf:about="">
        <dc:format>image/svg+xml</dc:format>
        <dc:type
           rdf:resource="http://purl.org/dc/dcmitype/StillImage" />
        <dc:title></dc:title>
      </cc:Work>
    </rdf:RDF>
  </metadata>
  <g
     id="layer1">
    <circle
       style="stroke-width:0.28606221"
       r="31.875505"
       cy="69.874603"
       cx="103.548"
       id="path10" />
    <rect
       style="stroke-width:0.37327042"
       y="245.84377"
       x="74.128357"
       height="38.414059"
       width="58.022007"
       id="rect22" />
    <path
       transform="matrix(-0.10319335,-0.5584708,0.41698498,-0.13820754,75.137368,245.03562)"
       style="stroke-width:0.26458332"
       d="M 239.63689,92.136902 222.15445,160.04561 161.7738,195.70237 93.865089,178.21993 58.208329,117.83928 75.690763,49.930572 136.07142,14.273813 203.98013,31.756246 Z"
       id="path3715" />
    <path
       transform="matrix(-0.05928966,-0.36705846,0.23957844,-0.09083778,87.22469,283.91935)"
       style="stroke-width:0.26458332"
       d="M 239.63689,92.136902 222.15445,160.04561 161.7738,195.70237 93.865089,178.21993 58.208329,117.83928 75.690763,49.930572 136.07142,14.273813 203.98013,31.756246 Z"
       id="path3719" />
    <rect
       id="rect3723"
       width="50.600494"
       height="23.964531"
       x="8.9515562"
       y="129.52197"
       style="stroke-width:0.23707145" />
    <circle
       style="stroke-width:0.2434572"
       r="32.692829"
       cy="251.84891"
       cx="172.4691"
       id="path3725" />
    <rect
       style="stroke-width:0.23707145"
       y="129.52197"
       x="147.04082"
       height="23.964531"
       width="50.600494"
       id="rect3743" />
  </g>
</svg>
