<?xml version="1.0" encoding="iso-8859-1"?>
<!-- Generator: Adobe Illustrator 19.0.0, SVG Export Plug-In . SVG Version: 6.00 Build 0)  -->
<svg version="1.1" id="Layer_1" xmlns="http://www.w3.org/2000/svg" xmlns:xlink="http://www.w3.org/1999/xlink" x="0px" y="0px"
	 viewBox="0 0 330.02 330.02" style="enable-background:new 0 0 330.02 330.02;" xml:space="preserve">
<g id="XMLID_819_">
	<path id="XMLID_820_" d="M239.256,133.191l-21.26-21.261c-0.002-0.003-0.004-0.005-0.007-0.008
		c-0.003-0.002-0.005-0.004-0.008-0.007l-21.15-21.152c-5.858-5.859-15.356-5.859-21.214-0.001
		c-5.857,5.857-5.858,15.355-0.001,21.213l10.554,10.554l-21.214,21.213l-10.554-10.553c-5.859-5.857-15.354-5.857-21.214,0
		c-5.857,5.858-5.856,15.356,0.001,21.213l10.553,10.553l-21.213,21.213l-10.554-10.554c-5.857-5.858-15.355-5.858-21.213,0
		c-5.858,5.858-5.858,15.355,0,21.213l42.427,42.427c2.929,2.929,6.768,4.394,10.606,4.394c3.839,0,7.678-1.464,10.606-4.394
		c5.858-5.858,5.858-15.355,0-21.213l-10.66-10.66l21.215-21.214l10.66,10.66c2.93,2.929,6.768,4.393,10.607,4.393
		c3.839,0,7.678-1.465,10.607-4.393c5.857-5.858,5.856-15.356-0.001-21.213l-10.66-10.66l21.212-21.211l10.659,10.66
		c2.93,2.93,6.768,4.394,10.607,4.394c3.839,0,7.678-1.464,10.606-4.393C245.112,148.546,245.113,139.049,239.256,133.191z"/>
	<path id="XMLID_821_" d="M327.856,126.518c6.218-46.275-1.23-87.641-18.973-105.381c-13.425-13.425-40.38-21.125-73.953-21.125
		c-27.92,0-57.157,5.255-84.552,15.196C117.979,26.965,90.008,44.471,67.24,67.238C28.03,106.449,11.834,153.674,5.143,186.09
		c-0.059,0.254-0.115,0.508-0.16,0.764c-1.25,6.147-2.16,11.753-2.818,16.647c-6.219,46.275,1.227,87.64,18.97,105.381
		c13.424,13.424,40.38,21.125,73.955,21.126c0.005,0,0.007,0,0.012,0c27.915,0,57.151-5.255,84.541-15.196
		c32.4-11.759,60.372-29.266,83.139-52.034c39.216-39.215,55.41-86.448,62.101-118.864c0.057-0.247,0.111-0.493,0.155-0.742
		C326.287,137.022,327.198,131.414,327.856,126.518z M287.672,42.35c7.987,7.986,14.167,33.122,11.867,66.269l-78.111-78.111
		c4.662-0.33,9.181-0.497,13.503-0.497C262.84,30.011,281.529,36.208,287.672,42.35z M95.1,300.009c-0.003,0-0.007,0-0.009,0
		c-27.913-0.001-46.604-6.198-52.744-12.339c-7.986-7.986-14.165-33.122-11.866-66.27l78.111,78.112
		C103.935,299.841,99.419,300.009,95.1,300.009z M241.567,241.566c-27.923,27.924-63.29,44.188-96.31,52.186l-109.07-109.07
		c6.713-27.884,21.157-65.123,52.266-96.231c27.922-27.92,63.289-44.184,96.31-52.182l109.068,109.069
		C287.119,173.222,272.675,210.458,241.567,241.566z"/>
</g>
<g>
</g>
<g>
</g>
<g>
</g>
<g>
</g>
<g>
</g>
<g>
</g>
<g>
</g>
<g>
</g>
<g>
</g>
<g>
</g>
<g>
</g>
<g>
</g>
<g>
</g>
<g>
</g>
<g>
</g>
</svg>
