<?xml version="1.0" encoding="iso-8859-1"?>
<!-- Generator: Adobe Illustrator 19.0.0, SVG Export Plug-In . SVG Version: 6.00 Build 0)  -->
<svg version="1.1" id="Layer_1" xmlns="http://www.w3.org/2000/svg" xmlns:xlink="http://www.w3.org/1999/xlink" x="0px" y="0px"
	 viewBox="0 0 485 485" style="enable-background:new 0 0 485 485;" xml:space="preserve">
<g>
	<polygon points="225.733,259.018 98.419,4.148 71.581,17.555 208.966,292.584 	"/>
	<path d="M450,390.852H291.587l-15.552-31.134l-16.767,33.566l30.66,61.378c7.457,14.931,25.666,26.19,42.356,26.19H450
		c19.299,0,35-15.701,35-35v-20C485,406.552,469.299,390.852,450,390.852z"/>
	<path d="M386.581,4.148L193.413,390.852H35c-19.299,0-35,15.701-35,35v20c0,19.299,15.701,35,35,35h117.716
		c16.69,0,34.899-11.259,42.356-26.189L413.419,17.555L386.581,4.148z"/>
</g>
<g>
</g>
<g>
</g>
<g>
</g>
<g>
</g>
<g>
</g>
<g>
</g>
<g>
</g>
<g>
</g>
<g>
</g>
<g>
</g>
<g>
</g>
<g>
</g>
<g>
</g>
<g>
</g>
<g>
</g>
</svg>
